<svg width="151" height="42" viewBox="0 0 151 42" fill="none" xmlns="http://www.w3.org/2000/svg">
<g filter="url(#filter0_i_1_24)">
<rect width="151" height="42" rx="21" fill="#7033FF"/>
</g>
<path d="M33.32 28H23.52V14.28H25.76V26.04H31.08V24.08H33.32V28ZM45.3655 28H37.5255C36.9841 28 36.5175 27.8133 36.1255 27.44C35.7521 27.048 35.5655 26.5813 35.5655 26.04V20.16C35.5655 19.6187 35.7521 19.1613 36.1255 18.788C36.5175 18.396 36.9841 18.2 37.5255 18.2H43.4055C43.9468 18.2 44.4041 18.396 44.7775 18.788C45.1695 19.1613 45.3655 19.6187 45.3655 20.16V22.12L43.4055 24.08H37.8055L39.4855 22.4H43.4055V19.88H37.5255V26.32H45.3655V28ZM57.8244 28H55.8644V26.572L54.1844 28H49.9844C49.443 28 48.9764 27.8133 48.5844 27.44C48.211 27.048 48.0244 26.5813 48.0244 26.04V24.08C48.0244 23.5387 48.211 23.0813 48.5844 22.708C48.9764 22.316 49.443 22.12 49.9844 22.12H55.5844L53.9044 23.772H49.9844V26.32H55.8644V19.88H48.0244L49.7044 18.2H55.8644C56.4057 18.2 56.863 18.396 57.2364 18.788C57.6284 19.1613 57.8244 19.6187 57.8244 20.16V28ZM71.5334 28H69.5734V26.6L68.1734 28H63.6934C63.1521 28 62.6854 27.8133 62.2934 27.44C61.9201 27.048 61.7334 26.5813 61.7334 26.04V20.16C61.7334 19.6187 61.9201 19.1613 62.2934 18.788C62.6854 18.396 63.1521 18.2 63.6934 18.2H69.5734V13.72L71.5334 11.76V28ZM69.5734 26.32V18.48L68.1734 19.88H63.6934V26.32H69.5734ZM88.0534 28H85.8134V24.08H78.5334V28H76.2934V16.24C76.2934 15.6987 76.4801 15.2413 76.8534 14.868C77.2454 14.476 77.7121 14.28 78.2534 14.28H88.0534V28ZM85.8134 22.12V16.24H78.5334V23.8L80.2134 22.12H85.8134ZM94.7625 28H92.8025V13.72L94.7625 11.76V28ZM108.776 28H100.936C100.394 28 99.9276 27.8133 99.5356 27.44C99.1623 27.048 98.9756 26.5813 98.9756 26.04V20.16C98.9756 19.6187 99.1623 19.1613 99.5356 18.788C99.9276 18.396 100.394 18.2 100.936 18.2H106.816C107.357 18.2 107.814 18.396 108.188 18.788C108.58 19.1613 108.776 19.6187 108.776 20.16V22.12L106.816 24.08H101.216L102.896 22.4H106.816V19.88H100.936V26.32H108.776V28ZM119.695 22.12H117.735V19.88H113.815V28H111.855V18.2H113.815V19.6L115.215 18.2H117.735C118.276 18.2 118.733 18.396 119.107 18.788C119.499 19.1613 119.695 19.6187 119.695 20.16V22.12ZM129.205 28H125.285C124.743 28 124.277 27.8133 123.885 27.44C123.511 27.048 123.325 26.5813 123.325 26.04V19.88H120.525L122.205 18.2H123.325V16.24L125.285 14.28V18.2H129.205V19.88H125.285V26.32H129.205V28Z" fill="white"/>
<defs>
<filter id="filter0_i_1_24" x="0" y="0" width="151" height="46" filterUnits="userSpaceOnUse" color-interpolation-filters="sRGB">
<feFlood flood-opacity="0" result="BackgroundImageFix"/>
<feBlend mode="normal" in="SourceGraphic" in2="BackgroundImageFix" result="shape"/>
<feColorMatrix in="SourceAlpha" type="matrix" values="0 0 0 0 0 0 0 0 0 0 0 0 0 0 0 0 0 0 127 0" result="hardAlpha"/>
<feOffset dy="4"/>
<feGaussianBlur stdDeviation="2"/>
<feComposite in2="hardAlpha" operator="arithmetic" k2="-1" k3="1"/>
<feColorMatrix type="matrix" values="0 0 0 0 0 0 0 0 0 0 0 0 0 0 0 0 0 0 0.25 0"/>
<feBlend mode="normal" in2="shape" result="effect1_innerShadow_1_24"/>
</filter>
</defs>
</svg>
