<?xml version="1.0" encoding="UTF-8" standalone="no"?>
<!DOCTYPE svg PUBLIC "-//W3C//DTD SVG 1.1//EN" "http://www.w3.org/Graphics/SVG/1.1/DTD/svg11.dtd">
<svg width="100%" height="100%" viewBox="0 0 644 761" version="1.1" xmlns="http://www.w3.org/2000/svg" xmlns:xlink="http://www.w3.org/1999/xlink" xml:space="preserve" xmlns:serif="http://www.serif.com/" style="fill-rule:evenodd;clip-rule:evenodd;stroke-linejoin:round;stroke-miterlimit:2;">
    <g transform="matrix(1,0,0,1,-142.485719,-47.206155)">
        <g transform="matrix(0.2,0,0,-0.2,0,852)">
            <path d="M2265,4019C2105,3983 2056,3759 2185,3652C2340,3525 2561,3664 2518,3863C2495,3972 2377,4044 2265,4019Z" style="fill:rgb(108,92,231);fill-rule:nonzero;"/>
            <path d="M1571,3910C1465,3885 1415,3756 1475,3655C1509,3596 1543,3576 1612,3575C1704,3575 1761,3630 1768,3727C1776,3849 1683,3935 1571,3910Z" style="fill:rgb(108,92,231);fill-rule:nonzero;"/>
            <path d="M2977,3906C2912,3882 2883,3847 2869,3775C2849,3669 2929,3570 3035,3570C3137,3570 3218,3684 3190,3786C3175,3840 3122,3896 3072,3909C3026,3922 3024,3922 2977,3906Z" style="fill:rgb(108,92,231);fill-rule:nonzero;"/>
            <path d="M866,3284C810,3264 763,3225 740,3180C714,3129 705,3046 719,2992C736,2932 843,2755 1124,2328C1298,2063 1490,1760 1559,1643C1577,1611 1625,1528 1666,1457L1740,1329L1740,847C1740,387 1741,363 1760,321C1794,248 1837,220 1919,220C1969,220 1973,222 2295,412C2758,685 2809,721 2858,815L2885,865L2886,1112L2886,1359L3006,1544C3142,1756 3468,2249 3584,2420C3659,2529 3774,2715 3881,2898C3926,2976 3930,2986 3930,3048C3929,3159 3886,3225 3785,3272L3735,3295L2320,3297C1108,3299 899,3297 866,3284ZM3553,2963C3556,2958 3409,2732 3228,2460C3047,2188 2881,1936 2859,1900C2805,1812 2700,1645 2629,1533L2570,1442L2570,934L2405,827C2196,692 2082,625 2073,634C2069,638 2064,822 2062,1043L2058,1445L1972,1590C1782,1910 1606,2186 1240,2737C1158,2859 1095,2961 1098,2964C1106,2973 3548,2971 3553,2963Z" style="fill:rgb(108,92,231);fill-rule:nonzero;"/>
            <path d="M2268,2745C2240,2730 2220,2697 2125,2515C2093,2455 2048,2368 2024,2322C1986,2252 1980,2231 1980,2181C1980,2086 1994,2076 2125,2072L2232,2068L2225,2017C2221,1988 2207,1898 2194,1816C2171,1680 2171,1666 2185,1644C2202,1618 2237,1613 2262,1633C2270,1639 2305,1684 2339,1732C2373,1780 2407,1826 2415,1833C2422,1841 2492,1932 2571,2036C2649,2140 2724,2238 2737,2254C2752,2272 2760,2293 2758,2309L2755,2335L2585,2337C2492,2338 2412,2339 2408,2339C2404,2340 2418,2369 2439,2404C2521,2538 2620,2722 2620,2740C2620,2759 2612,2760 2458,2760C2335,2759 2288,2756 2268,2745Z" style="fill:rgb(108,92,231);fill-rule:nonzero;"/>
        </g>
    </g>
</svg>
